<svg width="20" height="20" viewBox="0 0 20 20" fill="none" xmlns="http://www.w3.org/2000/svg">
<g clip-path="url(#clip0_18_398)">
<path d="M11.25 10H6.25" stroke="white" stroke-width="1.25" stroke-linecap="round" stroke-linejoin="round"/>
<path d="M3.78835 17.2876C3.7444 17.4076 3.73831 17.5382 3.77089 17.6618C3.80347 17.7854 3.87316 17.896 3.97056 17.9787C4.06796 18.0615 4.18839 18.1124 4.31562 18.1246C4.44284 18.1368 4.57075 18.1097 4.6821 18.0469L17.8071 10.5399C17.9048 10.4859 17.9862 10.4066 18.0429 10.3105C18.0996 10.2143 18.1295 10.1047 18.1295 9.99303C18.1295 9.88139 18.0996 9.77178 18.0429 9.67561C17.9862 9.57944 17.9048 9.50021 17.8071 9.44616L4.6821 1.95788C4.57109 1.89579 4.44378 1.86905 4.31717 1.88123C4.19056 1.89341 4.07068 1.94393 3.97354 2.02604C3.87641 2.10814 3.80663 2.21794 3.77354 2.34075C3.74045 2.46356 3.74561 2.59355 3.78835 2.71334L6.25007 10.0001L3.78835 17.2876Z" stroke="white" stroke-width="1.25" stroke-linecap="round" stroke-linejoin="round"/>
</g>
<defs>
<clipPath id="clip0_18_398">
<rect width="20" height="20" fill="white"/>
</clipPath>
</defs>
</svg>
